<svg width="12" height="12" viewBox="0 0 12 12" fill="none" xmlns="http://www.w3.org/2000/svg">
<g clip-path="url(#clip0_123_9)">
<path fill-rule="evenodd" clip-rule="evenodd" d="M1.46318 0.251169C1.30152 0.0950338 1.085 0.00863855 0.860262 0.0105915C0.635522 0.0125444 0.42054 0.102689 0.261619 0.26161C0.102698 0.420532 0.0125527 0.635514 0.0105998 0.860254C0.00864688 1.08499 0.0950421 1.30151 0.251178 1.46317L4.78803 6.00003L0.251178 10.5369C0.169312 10.616 0.104013 10.7105 0.0590906 10.8151C0.0141686 10.9197 -0.0094767 11.0322 -0.0104657 11.146C-0.0114547 11.2598 0.0102325 11.3726 0.0533304 11.478C0.0964283 11.5833 0.160074 11.679 0.240553 11.7595C0.321033 11.84 0.416734 11.9036 0.522074 11.9467C0.627414 11.9898 0.740282 12.0115 0.854093 12.0105C0.967904 12.0095 1.08038 11.9859 1.18495 11.941C1.28953 11.896 1.38411 11.8307 1.46318 11.7489L6.00003 7.21203L10.5369 11.7489C10.6986 11.905 10.9151 11.9914 11.1398 11.9895C11.3645 11.9875 11.5795 11.8974 11.7385 11.7384C11.8974 11.5795 11.9875 11.3645 11.9895 11.1398C11.9914 10.9151 11.905 10.6985 11.7489 10.5369L7.21203 6.00003L11.7489 1.46317C11.905 1.30151 11.9914 1.08499 11.9895 0.860254C11.9875 0.635514 11.8974 0.420532 11.7385 0.26161C11.5795 0.102689 11.3645 0.0125444 11.1398 0.0105915C10.9151 0.00863855 10.6986 0.0950338 10.5369 0.251169L6.00003 4.78803L1.46318 0.251169Z" fill="#545454"/>
</g>
<defs>
<clipPath id="clip0_123_9">
<rect width="12" height="12" fill="white"/>
</clipPath>
</defs>
</svg>
