<svg width="200" height="200" viewBox="0 0 300 300" fill="none" xmlns="http://www.w3.org/2000/svg">
<path d="M154.33 17.5L266.913 212.5C268.838 215.833 266.432 220 262.583 220H37.4167C33.5677 220 31.1621 215.833 33.0866 212.5L145.67 17.5C147.594 14.1667 152.406 14.1667 154.33 17.5Z" fill="#892DE6" stroke="black" stroke-width="10"/>
<path d="M154.049 66.9237L221.743 188.136C223.604 191.469 221.194 195.574 217.377 195.574H81.9905C78.1732 195.574 75.7639 191.469 77.6251 188.136L145.318 66.9237C147.226 63.5076 152.141 63.5076 154.049 66.9237Z" fill="white" stroke="#892DE6" stroke-width="10"/>
<path d="M145.328 161.57V126.004H154.703V161.57H145.328ZM144.859 170.887C144.859 168.25 147.086 165.906 150.074 165.906C153.062 165.906 155.172 168.25 155.172 170.887C155.172 173.699 153.062 175.984 150.074 175.984C147.086 175.984 144.859 173.699 144.859 170.887Z" fill="#892DE6"/>
</svg>
