<svg width="32" height="32" viewBox="0 0 32 32" fill="none" xmlns="http://www.w3.org/2000/svg">
<path d="M12.0001 25C12.0001 24.7348 12.1054 24.4804 12.2929 24.2929C12.4805 24.1054 12.7348 24 13.0001 24H19.0001C19.2653 24 19.5196 24.1054 19.7072 24.2929C19.8947 24.4804 20.0001 24.7348 20.0001 25C20.0001 25.2652 19.8947 25.5196 19.7072 25.7071C19.5196 25.8947 19.2653 26 19.0001 26H13.0001C12.7348 26 12.4805 25.8947 12.2929 25.7071C12.1054 25.5196 12.0001 25.2652 12.0001 25ZM6.00005 16.124C6.00005 13.52 8.47005 11.53 11.0601 11.772C14.3463 12.0785 17.6538 12.0785 20.9401 11.772C23.5301 11.53 26.0001 13.52 26.0001 16.124V18.438C26.0094 18.8808 25.8605 19.3125 25.58 19.6553C25.2996 19.9981 24.906 20.2295 24.4701 20.308C22.7801 20.602 19.7901 21 16.0001 21C12.2101 21 9.22005 20.6 7.53005 20.308C7.09414 20.2295 6.70055 19.9981 6.42007 19.6553C6.1396 19.3125 5.99066 18.8808 6.00005 18.438V16.124ZM15.0841 14.47C15.0061 14.4568 14.9261 14.4622 14.8507 14.4858C14.7753 14.5095 14.7065 14.5507 14.6501 14.606L12.8101 16.406C11.5586 16.331 10.3104 16.2089 9.06805 16.04C8.93932 16.0272 8.81064 16.0648 8.70905 16.1449C8.60746 16.225 8.54087 16.3414 8.52326 16.4695C8.50566 16.5977 8.53841 16.7277 8.61464 16.8322C8.69087 16.9367 8.80464 17.0076 8.93205 17.03C10.0321 17.182 11.3961 17.328 12.9721 17.416C13.0415 17.4199 13.1109 17.4093 13.176 17.3849C13.2411 17.3604 13.3004 17.3227 13.3501 17.274L14.8581 15.802L16.5521 19.222C16.5877 19.2938 16.6401 19.3559 16.7049 19.4031C16.7696 19.4504 16.8447 19.4814 16.9239 19.4936C17.0031 19.5057 17.0841 19.4987 17.16 19.473C17.2359 19.4473 17.3045 19.4038 17.3601 19.346L19.2241 17.406C20.5098 17.3302 21.792 17.2048 23.0681 17.03C23.1955 17.0076 23.3092 16.9367 23.3855 16.8322C23.4617 16.7277 23.4944 16.5977 23.4768 16.4695C23.4592 16.3414 23.3926 16.225 23.291 16.1449C23.1895 16.0648 23.0608 16.0272 22.9321 16.04C21.8561 16.188 20.5181 16.33 18.9721 16.418C18.8462 16.425 18.7276 16.4793 18.6401 16.57L17.1321 18.14L15.4481 14.74C15.4129 14.6695 15.3617 14.6083 15.2984 14.5614C15.2351 14.5145 15.1617 14.4832 15.0841 14.47Z" fill="#545454"/>
<path d="M17 3.73205C17.3813 3.51192 17.6793 3.17212 17.8478 2.76537C18.0162 2.35861 18.0458 1.90763 17.9319 1.48236C17.8179 1.0571 17.5668 0.681312 17.2175 0.413293C16.8682 0.145275 16.4403 0 16 0C15.5597 0 15.1318 0.145275 14.7825 0.413293C14.4332 0.681312 14.1821 1.0571 14.0681 1.48236C13.9542 1.90763 13.9838 2.35861 14.1522 2.76537C14.3207 3.17212 14.6187 3.51192 15 3.73205V6.00005H11C8.61305 6.00005 6.32387 6.94826 4.63604 8.63609C2.94821 10.3239 2 12.6131 2 15.0001V16.0001C1.46957 16.0001 0.960859 16.2108 0.585786 16.5858C0.210714 16.9609 0 17.4696 0 18.0001L0 22.0001C0 22.5305 0.210714 23.0392 0.585786 23.4143C0.960859 23.7893 1.46957 24.0001 2 24.0001V26.0001C2 27.0609 2.42143 28.0783 3.17157 28.8285C3.92172 29.5786 4.93913 30.0001 6 30.0001H26C27.0609 30.0001 28.0783 29.5786 28.8284 28.8285C29.5786 28.0783 30 27.0609 30 26.0001V24.0001C30.5304 24.0001 31.0391 23.7893 31.4142 23.4143C31.7893 23.0392 32 22.5305 32 22.0001V18.0001C32 17.4696 31.7893 16.9609 31.4142 16.5858C31.0391 16.2108 30.5304 16.0001 30 16.0001V15.0001C30 12.6131 29.0518 10.3239 27.364 8.63609C25.6761 6.94826 23.3869 6.00005 21 6.00005H17V3.73205ZM28 15.0001V26.0001C28 26.5305 27.7893 27.0392 27.4142 27.4143C27.0391 27.7893 26.5304 28.0001 26 28.0001H6C5.46957 28.0001 4.96086 27.7893 4.58579 27.4143C4.21071 27.0392 4 26.5305 4 26.0001V15.0001C4 13.1435 4.7375 11.3631 6.05025 10.0503C7.36301 8.73755 9.14348 8.00005 11 8.00005H21C22.8565 8.00005 24.637 8.73755 25.9497 10.0503C27.2625 11.3631 28 13.1435 28 15.0001Z" fill="#545454"/>
</svg>
